<svg width="377" height="377" viewBox="0 0 377 377" fill="none" xmlns="http://www.w3.org/2000/svg">
<rect width="377" height="377" fill="white"/>
<path d="M23.165 327.029C23.165 325.786 23.3223 324.559 23.6367 323.346C23.9661 322.133 24.4528 320.98 25.0967 319.887C25.7555 318.794 26.5716 317.783 27.5449 316.854C28.5182 315.911 29.6562 315.103 30.959 314.429C32.2617 313.74 33.7292 313.208 35.3613 312.834C37.0085 312.445 38.8128 312.25 40.7744 312.25C41.8226 312.25 42.8633 312.332 43.8965 312.497C44.9297 312.662 45.918 312.894 46.8613 313.193C47.8197 313.478 48.7181 313.83 49.5566 314.249C50.4102 314.668 51.1663 315.132 51.8252 315.642V313.036H56.9238V321.122H51.8252C51.346 320.358 50.7171 319.655 49.9385 319.011C49.1598 318.352 48.2764 317.79 47.2881 317.326C46.2998 316.862 45.2217 316.503 44.0537 316.248C42.8857 315.979 41.6729 315.844 40.415 315.844C38.4385 315.844 36.7165 316.158 35.249 316.787C33.7965 317.416 32.5911 318.255 31.6328 319.303C30.6745 320.336 29.9557 321.526 29.4766 322.874C29.0124 324.207 28.7803 325.592 28.7803 327.029C28.7803 328.646 29.0798 330.136 29.6787 331.499C30.2777 332.847 31.1087 334.007 32.1719 334.98C33.25 335.954 34.5303 336.717 36.0127 337.271C37.4951 337.811 39.1273 338.08 40.9092 338.08C42.5264 338.08 43.9938 337.923 45.3115 337.608C46.6292 337.294 47.8047 336.845 48.8379 336.261C49.8711 335.662 50.762 334.936 51.5107 334.082C52.2744 333.229 52.9108 332.27 53.4199 331.207L56.8789 333.543C55.4863 336.208 53.4499 338.23 50.7695 339.607C48.1042 340.985 44.75 341.674 40.707 341.674C38.1615 341.674 35.818 341.299 33.6768 340.551C31.5355 339.802 29.6862 338.769 28.1289 337.451C26.5716 336.133 25.3512 334.584 24.4678 332.802C23.5993 331.02 23.165 329.096 23.165 327.029ZM53.1729 322.694H58.541V314.182H59.4395V323.548H53.1729V322.694ZM30.3975 327.007C30.3975 325.614 30.6445 324.334 31.1387 323.166C31.6328 321.998 32.3216 320.987 33.2051 320.134C34.1035 319.28 35.1667 318.614 36.3945 318.135C37.6374 317.656 39.0075 317.416 40.5049 317.416C42.4665 317.416 44.1885 317.723 45.6709 318.337C47.1683 318.936 48.3662 319.797 49.2646 320.92C47.9619 320.007 46.5768 319.34 45.1094 318.921C43.6569 318.487 42.0921 318.27 40.415 318.27C38.9925 318.27 37.7122 318.502 36.5742 318.966C35.4512 319.43 34.4928 320.059 33.6992 320.853C32.9206 321.631 32.3216 322.545 31.9023 323.593C31.498 324.626 31.2959 325.719 31.2959 326.872C31.2959 327.995 31.4456 329.043 31.7451 330.017C32.0596 330.975 32.5462 331.858 33.2051 332.667C33.8789 333.476 34.7474 334.209 35.8105 334.868C36.8737 335.527 38.1689 336.104 39.6963 336.598C38.2887 336.403 37.0085 336.036 35.8555 335.497C34.7174 334.958 33.7441 334.277 32.9355 333.453C32.127 332.63 31.498 331.679 31.0488 330.601C30.6146 329.507 30.3975 328.31 30.3975 327.007ZM28.6455 339.922C29.3643 340.416 30.1953 340.865 31.1387 341.27C32.097 341.689 33.1003 342.041 34.1484 342.325C35.2116 342.625 36.3047 342.849 37.4277 342.999C38.5658 343.164 39.6738 343.246 40.752 343.246C42.6686 343.246 44.488 343.081 46.21 342.752C47.9469 342.423 49.5342 341.936 50.9717 341.292C52.4242 340.663 53.7044 339.884 54.8125 338.956C55.9206 338.013 56.8115 336.942 57.4854 335.744L58.2715 336.216C57.5827 337.459 56.6693 338.574 55.5312 339.562C54.3932 340.536 53.068 341.359 51.5557 342.033C50.0583 342.707 48.3887 343.216 46.5469 343.561C44.7201 343.92 42.7734 344.1 40.707 344.1C39.5241 344.1 38.3486 344.01 37.1807 343.83C36.0127 343.665 34.8971 343.403 33.834 343.044C32.7858 342.7 31.8125 342.265 30.9141 341.741C30.0306 341.232 29.2744 340.626 28.6455 339.922ZM64.4482 337.406H70.5127V316.63H64.4482V313.036H81.6309V316.63H75.6113V325.479H95.6689V316.63H89.6494V313.036H106.832V316.63H100.768V337.406H106.832V341H89.6494V337.406H95.6689V328.287H75.6113V337.406H81.6309V341H64.4482V337.406ZM102.385 318.202H108.427V314.182H109.325V319.056H103.283V336.059H102.385V318.202ZM77.2285 318.202H83.2256V314.182H84.124V319.056H78.127V324.132H77.2285V318.202ZM90.9971 318.202H94.7256V319.056H90.9971V318.202ZM65.7959 318.202L69.5693 319.056H65.7959V318.202ZM77.2285 329.859H94.7705V330.713H78.127V336.059H77.2285V329.859ZM108.449 342.572V338.664H109.303V343.426H90.9971V342.572H108.449ZM83.248 342.572V338.664H84.1465V343.426H65.7959V342.572H83.248ZM115.165 337.406H121.454V316.63H115.39V313.036H132.797V316.63H126.553V337.406H132.572V341H115.165V337.406ZM128.17 318.202H134.392V314.159H135.29V319.056H129.068V336.059H128.17V318.202ZM116.737 318.202H120.511V319.056H116.737V318.202ZM134.189 342.572V338.664H135.088V343.426H116.513V342.572H134.189ZM140.052 327.029C140.052 325.786 140.209 324.559 140.523 323.346C140.853 322.133 141.34 320.98 141.983 319.887C142.642 318.794 143.458 317.783 144.432 316.854C145.405 315.911 146.543 315.103 147.846 314.429C149.148 313.74 150.616 313.208 152.248 312.834C153.895 312.445 155.7 312.25 157.661 312.25C158.709 312.25 159.75 312.332 160.783 312.497C161.816 312.662 162.805 312.894 163.748 313.193C164.706 313.478 165.605 313.83 166.443 314.249C167.297 314.668 168.053 315.132 168.712 315.642V313.036H173.811V321.122H168.712C168.233 320.358 167.604 319.655 166.825 319.011C166.047 318.352 165.163 317.79 164.175 317.326C163.187 316.862 162.108 316.503 160.94 316.248C159.772 315.979 158.56 315.844 157.302 315.844C155.325 315.844 153.603 316.158 152.136 316.787C150.683 317.416 149.478 318.255 148.52 319.303C147.561 320.336 146.842 321.526 146.363 322.874C145.899 324.207 145.667 325.592 145.667 327.029C145.667 328.646 145.966 330.136 146.565 331.499C147.164 332.847 147.995 334.007 149.059 334.98C150.137 335.954 151.417 336.717 152.899 337.271C154.382 337.811 156.014 338.08 157.796 338.08C159.413 338.08 160.881 337.923 162.198 337.608C163.516 337.294 164.691 336.845 165.725 336.261C166.758 335.662 167.649 334.936 168.397 334.082C169.161 333.229 169.798 332.27 170.307 331.207L173.766 333.543C172.373 336.208 170.337 338.23 167.656 339.607C164.991 340.985 161.637 341.674 157.594 341.674C155.048 341.674 152.705 341.299 150.563 340.551C148.422 339.802 146.573 338.769 145.016 337.451C143.458 336.133 142.238 334.584 141.354 332.802C140.486 331.02 140.052 329.096 140.052 327.029ZM170.06 322.694H175.428V314.182H176.326V323.548H170.06V322.694ZM147.284 327.007C147.284 325.614 147.531 324.334 148.025 323.166C148.52 321.998 149.208 320.987 150.092 320.134C150.99 319.28 152.053 318.614 153.281 318.135C154.524 317.656 155.894 317.416 157.392 317.416C159.353 317.416 161.075 317.723 162.558 318.337C164.055 318.936 165.253 319.797 166.151 320.92C164.849 320.007 163.464 319.34 161.996 318.921C160.544 318.487 158.979 318.27 157.302 318.27C155.879 318.27 154.599 318.502 153.461 318.966C152.338 319.43 151.38 320.059 150.586 320.853C149.807 321.631 149.208 322.545 148.789 323.593C148.385 324.626 148.183 325.719 148.183 326.872C148.183 327.995 148.332 329.043 148.632 330.017C148.946 330.975 149.433 331.858 150.092 332.667C150.766 333.476 151.634 334.209 152.697 334.868C153.76 335.527 155.056 336.104 156.583 336.598C155.175 336.403 153.895 336.036 152.742 335.497C151.604 334.958 150.631 334.277 149.822 333.453C149.014 332.63 148.385 331.679 147.936 330.601C147.501 329.507 147.284 328.31 147.284 327.007ZM145.532 339.922C146.251 340.416 147.082 340.865 148.025 341.27C148.984 341.689 149.987 342.041 151.035 342.325C152.098 342.625 153.191 342.849 154.314 342.999C155.452 343.164 156.561 343.246 157.639 343.246C159.555 343.246 161.375 343.081 163.097 342.752C164.834 342.423 166.421 341.936 167.858 341.292C169.311 340.663 170.591 339.884 171.699 338.956C172.807 338.013 173.698 336.942 174.372 335.744L175.158 336.216C174.469 337.459 173.556 338.574 172.418 339.562C171.28 340.536 169.955 341.359 168.442 342.033C166.945 342.707 165.275 343.216 163.434 343.561C161.607 343.92 159.66 344.1 157.594 344.1C156.411 344.1 155.235 344.01 154.067 343.83C152.899 343.665 151.784 343.403 150.721 343.044C149.673 342.7 148.699 342.265 147.801 341.741C146.917 341.232 146.161 340.626 145.532 339.922ZM181.11 324.379H194.048V328.085H181.11V324.379ZM183.042 329.657H195.665V326.535H196.563V330.511H183.042V329.657ZM201.28 327.029C201.28 325.786 201.438 324.559 201.752 323.346C202.081 322.133 202.568 320.98 203.212 319.887C203.871 318.794 204.687 317.783 205.66 316.854C206.633 315.911 207.771 315.103 209.074 314.429C210.377 313.74 211.844 313.208 213.477 312.834C215.124 312.445 216.928 312.25 218.89 312.25C219.938 312.25 220.979 312.332 222.012 312.497C223.045 312.662 224.033 312.894 224.977 313.193C225.935 313.478 226.833 313.83 227.672 314.249C228.525 314.668 229.282 315.132 229.94 315.642V313.036H235.039V321.122H229.94C229.461 320.358 228.832 319.655 228.054 319.011C227.275 318.352 226.392 317.79 225.403 317.326C224.415 316.862 223.337 316.503 222.169 316.248C221.001 315.979 219.788 315.844 218.53 315.844C216.554 315.844 214.832 316.158 213.364 316.787C211.912 317.416 210.706 318.255 209.748 319.303C208.79 320.336 208.071 321.526 207.592 322.874C207.128 324.207 206.896 325.592 206.896 327.029C206.896 328.646 207.195 330.136 207.794 331.499C208.393 332.847 209.224 334.007 210.287 334.98C211.365 335.954 212.646 336.717 214.128 337.271C215.61 337.811 217.243 338.08 219.024 338.08C220.642 338.08 222.109 337.923 223.427 337.608C224.744 337.294 225.92 336.845 226.953 336.261C227.986 335.662 228.877 334.936 229.626 334.082C230.39 333.229 231.026 332.27 231.535 331.207L234.994 333.543C233.602 336.208 231.565 338.23 228.885 339.607C226.219 340.985 222.865 341.674 218.822 341.674C216.277 341.674 213.933 341.299 211.792 340.551C209.651 339.802 207.801 338.769 206.244 337.451C204.687 336.133 203.466 334.584 202.583 332.802C201.715 331.02 201.28 329.096 201.28 327.029ZM231.288 322.694H236.656V314.182H237.555V323.548H231.288V322.694ZM208.513 327.007C208.513 325.614 208.76 324.334 209.254 323.166C209.748 321.998 210.437 320.987 211.32 320.134C212.219 319.28 213.282 318.614 214.51 318.135C215.753 317.656 217.123 317.416 218.62 317.416C220.582 317.416 222.304 317.723 223.786 318.337C225.284 318.936 226.481 319.797 227.38 320.92C226.077 320.007 224.692 319.34 223.225 318.921C221.772 318.487 220.207 318.27 218.53 318.27C217.108 318.27 215.827 318.502 214.689 318.966C213.566 319.43 212.608 320.059 211.814 320.853C211.036 321.631 210.437 322.545 210.018 323.593C209.613 324.626 209.411 325.719 209.411 326.872C209.411 327.995 209.561 329.043 209.86 330.017C210.175 330.975 210.661 331.858 211.32 332.667C211.994 333.476 212.863 334.209 213.926 334.868C214.989 335.527 216.284 336.104 217.812 336.598C216.404 336.403 215.124 336.036 213.971 335.497C212.833 334.958 211.859 334.277 211.051 333.453C210.242 332.63 209.613 331.679 209.164 330.601C208.73 329.507 208.513 328.31 208.513 327.007ZM206.761 339.922C207.479 340.416 208.311 340.865 209.254 341.27C210.212 341.689 211.215 342.041 212.264 342.325C213.327 342.625 214.42 342.849 215.543 342.999C216.681 343.164 217.789 343.246 218.867 343.246C220.784 343.246 222.603 343.081 224.325 342.752C226.062 342.423 227.649 341.936 229.087 341.292C230.539 340.663 231.82 339.884 232.928 338.956C234.036 338.013 234.927 336.942 235.601 335.744L236.387 336.216C235.698 337.459 234.785 338.574 233.646 339.562C232.508 340.536 231.183 341.359 229.671 342.033C228.174 342.707 226.504 343.216 224.662 343.561C222.835 343.92 220.889 344.1 218.822 344.1C217.639 344.1 216.464 344.01 215.296 343.83C214.128 343.665 213.012 343.403 211.949 343.044C210.901 342.7 209.928 342.265 209.029 341.741C208.146 341.232 207.39 340.626 206.761 339.922ZM242.563 337.406H248.628V316.63H242.563V313.036H259.746V316.63H253.727V325.479H273.784V316.63H267.765V313.036H284.947V316.63H278.883V337.406H284.947V341H267.765V337.406H273.784V328.287H253.727V337.406H259.746V341H242.563V337.406ZM280.5 318.202H286.542V314.182H287.44V319.056H281.398V336.059H280.5V318.202ZM255.344 318.202H261.341V314.182H262.239V319.056H256.242V324.132H255.344V318.202ZM269.112 318.202H272.841V319.056H269.112V318.202ZM243.911 318.202L247.685 319.056H243.911V318.202ZM255.344 329.859H272.886V330.713H256.242V336.059H255.344V329.859ZM286.564 342.572V338.664H287.418V343.426H269.112V342.572H286.564ZM261.363 342.572V338.664H262.262V343.426H243.911V342.572H261.363ZM293.28 337.406H299.569V316.63H293.505V313.036H310.912V316.63H304.668V337.406H310.688V341H293.28V337.406ZM306.285 318.202H312.507V314.159H313.405V319.056H307.184V336.059H306.285V318.202ZM294.853 318.202H298.626V319.056H294.853V318.202ZM312.305 342.572V338.664H313.203V343.426H294.628V342.572H312.305ZM318.167 327.029C318.167 325.786 318.324 324.559 318.639 323.346C318.968 322.133 319.455 320.98 320.099 319.887C320.757 318.794 321.574 317.783 322.547 316.854C323.52 315.911 324.658 315.103 325.961 314.429C327.264 313.74 328.731 313.208 330.363 312.834C332.01 312.445 333.815 312.25 335.776 312.25C336.825 312.25 337.865 312.332 338.898 312.497C339.932 312.662 340.92 312.894 341.863 313.193C342.822 313.478 343.72 313.83 344.559 314.249C345.412 314.668 346.168 315.132 346.827 315.642V313.036H351.926V321.122H346.827C346.348 320.358 345.719 319.655 344.94 319.011C344.162 318.352 343.278 317.79 342.29 317.326C341.302 316.862 340.224 316.503 339.056 316.248C337.888 315.979 336.675 315.844 335.417 315.844C333.44 315.844 331.718 316.158 330.251 316.787C328.799 317.416 327.593 318.255 326.635 319.303C325.676 320.336 324.958 321.526 324.479 322.874C324.014 324.207 323.782 325.592 323.782 327.029C323.782 328.646 324.082 330.136 324.681 331.499C325.28 332.847 326.111 334.007 327.174 334.98C328.252 335.954 329.532 336.717 331.015 337.271C332.497 337.811 334.129 338.08 335.911 338.08C337.528 338.08 338.996 337.923 340.313 337.608C341.631 337.294 342.807 336.845 343.84 336.261C344.873 335.662 345.764 334.936 346.513 334.082C347.276 333.229 347.913 332.27 348.422 331.207L351.881 333.543C350.488 336.208 348.452 338.23 345.771 339.607C343.106 340.985 339.752 341.674 335.709 341.674C333.163 341.674 330.82 341.299 328.679 340.551C326.537 339.802 324.688 338.769 323.131 337.451C321.574 336.133 320.353 334.584 319.47 332.802C318.601 331.02 318.167 329.096 318.167 327.029ZM348.175 322.694H353.543V314.182H354.441V323.548H348.175V322.694ZM325.399 327.007C325.399 325.614 325.646 324.334 326.141 323.166C326.635 321.998 327.324 320.987 328.207 320.134C329.105 319.28 330.169 318.614 331.396 318.135C332.639 317.656 334.009 317.416 335.507 317.416C337.468 317.416 339.19 317.723 340.673 318.337C342.17 318.936 343.368 319.797 344.267 320.92C342.964 320.007 341.579 319.34 340.111 318.921C338.659 318.487 337.094 318.27 335.417 318.27C333.994 318.27 332.714 318.502 331.576 318.966C330.453 319.43 329.495 320.059 328.701 320.853C327.923 321.631 327.324 322.545 326.904 323.593C326.5 324.626 326.298 325.719 326.298 326.872C326.298 327.995 326.448 329.043 326.747 330.017C327.062 330.975 327.548 331.858 328.207 332.667C328.881 333.476 329.749 334.209 330.812 334.868C331.876 335.527 333.171 336.104 334.698 336.598C333.291 336.403 332.01 336.036 330.857 335.497C329.719 334.958 328.746 334.277 327.938 333.453C327.129 332.63 326.5 331.679 326.051 330.601C325.617 329.507 325.399 328.31 325.399 327.007ZM323.647 339.922C324.366 340.416 325.197 340.865 326.141 341.27C327.099 341.689 328.102 342.041 329.15 342.325C330.214 342.625 331.307 342.849 332.43 342.999C333.568 343.164 334.676 343.246 335.754 343.246C337.671 343.246 339.49 343.081 341.212 342.752C342.949 342.423 344.536 341.936 345.974 341.292C347.426 340.663 348.706 339.884 349.814 338.956C350.923 338.013 351.813 336.942 352.487 335.744L353.273 336.216C352.585 337.459 351.671 338.574 350.533 339.562C349.395 340.536 348.07 341.359 346.558 342.033C345.06 342.707 343.391 343.216 341.549 343.561C339.722 343.92 337.775 344.1 335.709 344.1C334.526 344.1 333.351 344.01 332.183 343.83C331.015 343.665 329.899 343.403 328.836 343.044C327.788 342.7 326.814 342.265 325.916 341.741C325.033 341.232 324.276 340.626 323.647 339.922Z" fill="#00AA44"/>
<path d="M314.48 90.1105L319.933 84.7833L216.559 118.241L208.546 142.093L314.48 90.1105Z" fill="#00AA44"/>
<path d="M178.83 127.186L112.917 129.621C112.308 128.806 111.655 128.018 110.947 127.284C101.743 117.713 85.6276 116.415 72.6365 124.177C65.4203 128.484 60.0662 134.975 57.5414 142.451C54.9361 150.16 55.6523 157.994 59.547 164.494C60.5049 166.114 61.651 167.609 62.9492 168.952C69.9953 176.267 81.0794 178.747 91.7158 176.016C92.0202 176.598 92.3873 177.171 92.8708 177.673C95.5925 180.493 100.087 180.583 102.916 177.87C105.128 175.739 105.638 172.525 104.465 169.875C110.061 165.676 114.224 160.08 116.355 153.768C117.814 149.47 118.19 145.137 117.6 141.009L170.799 142.702L178.83 127.186ZM108.279 151.073C106.408 156.633 102.361 161.494 96.8818 164.762C87.2571 170.519 75.5642 169.794 69.0732 163.07C68.2226 162.175 67.4705 161.199 66.8438 160.16C64.2474 155.827 63.8087 150.509 65.5993 145.2C67.4705 139.64 71.5174 134.778 76.9878 131.501C86.6125 125.744 98.3143 126.46 104.796 133.202C105.647 134.089 106.399 135.073 107.026 136.121C109.64 140.445 110.07 145.764 108.279 151.073Z" fill="#00AA44"/>
<path d="M192.072 295.936C192.52 294.1 184.972 273.58 192.278 265.692C195.376 263.274 198.116 260.302 200.336 256.891C208.591 244.195 207.91 228.044 198.707 218.482C198.456 218.222 198.169 217.998 197.91 217.738L202.404 143.015L246.714 11L239.909 19.7473L177.237 141.027L187.694 152.389L183.719 211.059C180.075 210.63 176.261 210.952 172.438 212.071C164.872 214.309 158.184 219.404 153.6 226.45C145.345 239.146 146.026 255.297 155.23 264.868C156.528 266.193 157.987 267.402 159.554 268.414C163.091 270.723 167.075 272.013 171.256 272.344C181.543 276.946 182.206 291.199 183.441 294.136C184.695 297.109 191.589 297.87 192.072 295.936ZM188.384 141.197C186.682 139.416 186.736 136.596 188.509 134.885C190.282 133.193 193.102 133.238 194.812 135.02C196.513 136.784 196.459 139.613 194.687 141.314C192.905 143.024 190.085 142.97 188.384 141.197ZM179.099 263.095C173.718 264.689 168.427 264.026 164.192 261.287C163.162 260.615 162.213 259.836 161.363 258.941C154.872 252.208 154.612 240.48 160.727 231.097C164.201 225.734 169.215 221.893 174.846 220.227C180.227 218.634 185.51 219.287 189.744 222.027C190.774 222.707 191.723 223.495 192.574 224.391C199.065 231.123 199.315 242.843 193.209 252.244C189.727 257.58 184.713 261.448 179.099 263.095Z" fill="#00FF11"/>
</svg>
